<svg width="155" height="54" viewBox="0 0 155 54" fill="none" xmlns="http://www.w3.org/2000/svg">
<path d="M22.8102 53.492C22.7622 53.504 22.7202 53.474 22.6842 53.402C22.6482 53.342 22.6482 53.3 22.6842 53.276C23.2122 52.952 23.5902 52.46 23.8182 51.8C24.0462 51.152 24.1542 50.312 24.1422 49.28V40.208C24.1422 39.848 24.1062 39.584 24.0342 39.416C23.9622 39.248 23.8302 39.134 23.6382 39.074C23.4462 39.002 23.1522 38.966 22.7562 38.966C22.7202 38.966 22.7022 38.93 22.7022 38.858C22.7022 38.786 22.7202 38.75 22.7562 38.75L23.6202 38.768C24.1002 38.792 24.4962 38.804 24.8082 38.804C25.1562 38.804 25.5942 38.792 26.1222 38.768L26.9322 38.75C26.9682 38.75 26.9862 38.786 26.9862 38.858C26.9862 38.93 26.9682 38.966 26.9322 38.966C26.5362 38.966 26.2422 39.002 26.0502 39.074C25.8582 39.146 25.7262 39.272 25.6542 39.452C25.5942 39.62 25.5582 39.884 25.5462 40.244V48.794C25.5462 49.73 25.4562 50.486 25.2762 51.062C25.0962 51.65 24.8142 52.13 24.4302 52.502C24.0462 52.874 23.5062 53.204 22.8102 53.492ZM31.0335 50.252C30.3855 50.252 29.8215 50.096 29.3415 49.784C28.8735 49.472 28.5135 49.046 28.2615 48.506C28.0095 47.966 27.8835 47.366 27.8835 46.706C27.8835 45.962 28.0335 45.296 28.3335 44.708C28.6455 44.12 29.0715 43.658 29.6115 43.322C30.1515 42.986 30.7635 42.818 31.4475 42.818C32.4075 42.818 33.1755 43.136 33.7515 43.772C34.3275 44.396 34.6155 45.242 34.6155 46.31C34.6155 47.126 34.4475 47.834 34.1115 48.434C33.7875 49.022 33.3495 49.472 32.7975 49.784C32.2575 50.096 31.6695 50.252 31.0335 50.252ZM31.5915 49.802C32.1315 49.802 32.5635 49.562 32.8875 49.082C33.2235 48.59 33.3915 47.924 33.3915 47.084C33.3915 46.424 33.2835 45.8 33.0675 45.212C32.8515 44.624 32.5575 44.15 32.1855 43.79C31.8135 43.43 31.3935 43.25 30.9255 43.25C30.3975 43.25 29.9595 43.484 29.6115 43.952C29.2755 44.408 29.1075 45.056 29.1075 45.896C29.1075 46.556 29.2155 47.186 29.4315 47.786C29.6475 48.386 29.9415 48.872 30.3135 49.244C30.6975 49.616 31.1235 49.802 31.5915 49.802ZM41.0179 42.818C41.6299 42.818 42.1219 43.07 42.4939 43.574C42.8779 44.066 43.0699 44.702 43.0699 45.482C43.0699 46.454 42.8359 47.3 42.3679 48.02C41.9119 48.74 41.3419 49.292 40.6579 49.676C39.9739 50.048 39.3139 50.234 38.6779 50.234C37.9579 50.234 37.3819 50.084 36.9499 49.784C36.5299 49.484 36.3259 49.076 36.3379 48.56L36.4459 39.02C36.4699 38.408 36.2779 38.102 35.8699 38.102C35.6419 38.102 35.3479 38.192 34.9879 38.372H34.9699C34.9099 38.372 34.8739 38.342 34.8619 38.282C34.8379 38.21 34.8499 38.168 34.8979 38.156L37.3819 36.95H37.4179C37.4659 36.95 37.5139 36.968 37.5619 37.004C37.6099 37.04 37.6339 37.07 37.6339 37.094L37.5979 46.004C37.8619 45.056 38.2999 44.288 38.9119 43.7C39.5359 43.112 40.2379 42.818 41.0179 42.818ZM39.3619 49.766C39.7819 49.766 40.1719 49.616 40.5319 49.316C40.8919 49.016 41.1799 48.584 41.3959 48.02C41.6119 47.456 41.7139 46.796 41.7019 46.04C41.7139 45.356 41.5999 44.804 41.3599 44.384C41.1319 43.964 40.7719 43.754 40.2799 43.754C39.7639 43.754 39.3019 43.94 38.8939 44.312C38.4979 44.684 38.1799 45.212 37.9399 45.896C37.7119 46.568 37.5979 47.342 37.5979 48.218V48.272C37.5979 48.704 37.7659 49.064 38.1019 49.352C38.4379 49.628 38.8579 49.766 39.3619 49.766ZM48.6145 50C48.5785 50 48.5545 49.964 48.5425 49.892C48.5425 49.82 48.5665 49.784 48.6145 49.784C49.0225 49.784 49.3165 49.754 49.4965 49.694C49.6885 49.634 49.8205 49.52 49.8925 49.352C49.9645 49.172 50.0005 48.902 50.0005 48.542V40.208C49.9885 39.848 49.9465 39.584 49.8745 39.416C49.8025 39.248 49.6705 39.134 49.4785 39.074C49.2985 39.002 49.0105 38.966 48.6145 38.966C48.5785 38.966 48.5545 38.93 48.5425 38.858C48.5425 38.786 48.5665 38.75 48.6145 38.75L49.4425 38.768C49.9225 38.792 50.3185 38.804 50.6305 38.804C50.9065 38.804 51.1405 38.798 51.3325 38.786C51.5365 38.774 51.7045 38.762 51.8365 38.75C52.2565 38.714 52.6585 38.696 53.0425 38.696C54.2065 38.696 55.1665 38.948 55.9225 39.452C56.6785 39.956 57.0565 40.694 57.0565 41.666C57.0565 42.458 56.8405 43.13 56.4085 43.682C55.9765 44.222 55.4365 44.624 54.7885 44.888C54.1405 45.152 53.4925 45.284 52.8445 45.284C52.4845 45.284 52.2025 45.254 51.9985 45.194C51.9745 45.194 51.9625 45.158 51.9625 45.086C51.9625 45.05 51.9685 45.008 51.9805 44.96C52.0045 44.912 52.0285 44.894 52.0525 44.906C52.2085 44.954 52.4005 44.978 52.6285 44.978C53.4205 44.978 54.0925 44.726 54.6445 44.222C55.2085 43.718 55.4905 42.986 55.4905 42.026C55.4905 41.414 55.3585 40.88 55.0945 40.424C54.8305 39.956 54.4825 39.602 54.0505 39.362C53.6305 39.122 53.1805 39.002 52.7005 39.002C52.3165 39.002 52.0345 39.032 51.8545 39.092C51.6865 39.14 51.5665 39.248 51.4945 39.416C51.4345 39.584 51.3985 39.86 51.3865 40.244L51.4045 48.542C51.4045 48.902 51.4345 49.172 51.4945 49.352C51.5665 49.52 51.6925 49.634 51.8725 49.694C52.0645 49.754 52.3585 49.784 52.7545 49.784C52.7905 49.784 52.8085 49.82 52.8085 49.892C52.8085 49.964 52.7905 50 52.7545 50C52.3945 50 52.1125 49.994 51.9085 49.982L50.6665 49.964L49.4605 49.982C49.2565 49.994 48.9745 50 48.6145 50ZM61.0042 50.252C60.3562 50.252 59.7922 50.096 59.3122 49.784C58.8442 49.472 58.4842 49.046 58.2322 48.506C57.9802 47.966 57.8542 47.366 57.8542 46.706C57.8542 45.962 58.0042 45.296 58.3042 44.708C58.6162 44.12 59.0422 43.658 59.5822 43.322C60.1222 42.986 60.7342 42.818 61.4182 42.818C62.3782 42.818 63.1462 43.136 63.7222 43.772C64.2982 44.396 64.5862 45.242 64.5862 46.31C64.5862 47.126 64.4182 47.834 64.0822 48.434C63.7582 49.022 63.3202 49.472 62.7682 49.784C62.2282 50.096 61.6402 50.252 61.0042 50.252ZM61.5622 49.802C62.1022 49.802 62.5342 49.562 62.8582 49.082C63.1942 48.59 63.3622 47.924 63.3622 47.084C63.3622 46.424 63.2542 45.8 63.0382 45.212C62.8222 44.624 62.5282 44.15 62.1562 43.79C61.7842 43.43 61.3642 43.25 60.8962 43.25C60.3682 43.25 59.9302 43.484 59.5822 43.952C59.2462 44.408 59.0782 45.056 59.0782 45.896C59.0782 46.556 59.1862 47.186 59.4022 47.786C59.6182 48.386 59.9122 48.872 60.2842 49.244C60.6682 49.616 61.0942 49.802 61.5622 49.802ZM70.0166 42.872C70.3046 42.872 70.5806 42.962 70.8446 43.142C71.1206 43.322 71.2646 43.526 71.2766 43.754C71.2766 43.934 71.2046 44.102 71.0606 44.258C70.9166 44.414 70.7546 44.492 70.5746 44.492C70.4426 44.492 70.3346 44.474 70.2506 44.438C70.1786 44.39 70.0826 44.318 69.9626 44.222C69.8066 44.09 69.6626 44.024 69.5306 44.024C69.2666 44.024 69.0146 44.354 68.7746 45.014C68.5346 45.674 68.3366 46.466 68.1806 47.39C68.0246 48.314 67.9406 49.13 67.9286 49.838C67.9286 49.934 67.8686 50.006 67.7486 50.054C67.6286 50.114 67.4486 50.144 67.2086 50.144C66.9686 50.144 66.8186 50.126 66.7586 50.09C66.7106 50.066 66.6866 50.018 66.6866 49.946C66.6866 49.802 66.6926 49.676 66.7046 49.568L66.7226 48.668L66.7406 45.122C66.7526 44.138 66.5486 43.646 66.1286 43.646C65.9606 43.646 65.7806 43.706 65.5886 43.826C65.4086 43.946 65.2286 44.114 65.0486 44.33C65.0366 44.342 65.0186 44.348 64.9946 44.348C64.9586 44.348 64.9286 44.33 64.9046 44.294C64.8686 44.258 64.8566 44.222 64.8686 44.186C65.1926 43.766 65.5286 43.448 65.8766 43.232C66.2246 43.004 66.5606 42.89 66.8846 42.89C67.2566 42.89 67.5266 43.046 67.6946 43.358C67.8746 43.658 67.9646 44.216 67.9646 45.032L67.9466 47.066C68.1266 45.854 68.3906 44.852 68.7386 44.06C69.0866 43.268 69.5126 42.872 70.0166 42.872ZM77.6876 43.07C77.7356 43.07 77.7716 43.088 77.7956 43.124C77.8316 43.16 77.8496 43.196 77.8496 43.232C77.8376 43.388 77.7596 43.562 77.6156 43.754C77.4836 43.946 77.3456 44.03 77.2016 44.006L76.8236 43.952C75.7916 43.796 74.9516 43.706 74.3036 43.682L74.2856 48.092C74.2856 48.56 74.3816 48.902 74.5736 49.118C74.7656 49.334 75.0716 49.442 75.4916 49.442C76.0196 49.442 76.5416 49.238 77.0576 48.83H77.0756C77.1236 48.83 77.1656 48.854 77.2016 48.902C77.2376 48.938 77.2376 48.962 77.2016 48.974C76.7576 49.418 76.3376 49.736 75.9416 49.928C75.5456 50.12 75.1436 50.216 74.7356 50.216C74.2436 50.216 73.8356 50.09 73.5116 49.838C73.1996 49.586 73.0496 49.16 73.0616 48.56L73.0796 44.492C73.0796 44.192 73.0556 43.982 73.0076 43.862C72.9716 43.73 72.8936 43.64 72.7736 43.592C72.6536 43.544 72.4556 43.52 72.1796 43.52C72.1436 43.52 72.1256 43.478 72.1256 43.394C72.1256 43.31 72.1376 43.268 72.1616 43.268C72.6656 43.268 73.0676 43.136 73.3676 42.872C73.6796 42.596 73.8776 42.248 73.9616 41.828C73.9616 41.792 74.0096 41.774 74.1056 41.774C74.1536 41.774 74.1956 41.786 74.2316 41.81C74.2796 41.822 74.3036 41.834 74.3036 41.846V43.232C74.4956 43.232 75.3176 43.196 76.7696 43.124L77.6876 43.07ZM85.6727 48.614C85.6847 48.602 85.7027 48.596 85.7267 48.596C85.7627 48.596 85.7987 48.62 85.8347 48.668C85.8707 48.704 85.8827 48.734 85.8707 48.758C85.5227 49.226 85.1987 49.58 84.8987 49.82C84.5987 50.048 84.2927 50.162 83.9807 50.162C83.2487 50.162 82.8887 49.652 82.9007 48.632L82.9187 46.724C82.5587 47.792 82.0607 48.644 81.4247 49.28C80.8007 49.916 80.1347 50.234 79.4267 50.234C78.9587 50.234 78.5807 50.072 78.2927 49.748C78.0047 49.424 77.8607 48.92 77.8607 48.236C77.8607 47.408 78.0647 46.574 78.4727 45.734C78.8927 44.894 79.4267 44.198 80.0747 43.646C80.7347 43.094 81.4067 42.818 82.0907 42.818C82.3427 42.818 82.5947 42.86 82.8467 42.944C83.1107 43.016 83.3387 43.136 83.5307 43.304C83.7227 43.136 83.8547 42.932 83.9267 42.692C83.9267 42.668 83.9567 42.656 84.0167 42.656C84.1367 42.656 84.1847 42.674 84.1607 42.71L84.1247 48.398C84.1127 49.058 84.2687 49.388 84.5927 49.388C84.8807 49.388 85.2407 49.13 85.6727 48.614ZM82.8647 45.05C82.8647 44.594 82.7387 44.228 82.4867 43.952C82.2347 43.676 81.9047 43.538 81.4967 43.538C81.0407 43.538 80.6207 43.7 80.2367 44.024C79.8647 44.336 79.5707 44.78 79.3547 45.356C79.1387 45.92 79.0307 46.562 79.0307 47.282C79.0427 48.566 79.4147 49.208 80.1467 49.208C80.6147 49.208 81.0587 48.986 81.4787 48.542C81.8987 48.086 82.2347 47.534 82.4867 46.886C82.7387 46.226 82.8647 45.614 82.8647 45.05ZM88.1522 50.162C87.4082 50.162 87.0482 49.652 87.0722 48.632L87.1622 39.02C87.1862 38.408 87.0062 38.102 86.6222 38.102C86.4182 38.102 86.1242 38.192 85.7402 38.372H85.7222C85.6742 38.372 85.6382 38.342 85.6142 38.282C85.5902 38.222 85.6022 38.18 85.6502 38.156L88.1342 36.95H88.1702C88.2182 36.95 88.2602 36.968 88.2962 37.004C88.3442 37.04 88.3682 37.07 88.3682 37.094L88.3142 48.398C88.3022 49.058 88.4642 49.388 88.8002 49.388C89.0522 49.388 89.4062 49.13 89.8622 48.614C89.8742 48.602 89.8922 48.596 89.9162 48.596C89.9642 48.596 90.0062 48.62 90.0422 48.668C90.0902 48.704 90.1022 48.734 90.0782 48.758C89.7062 49.238 89.3762 49.592 89.0882 49.82C88.8002 50.048 88.4882 50.162 88.1522 50.162Z" fill="white"/>
<path d="M10.1646 49.2463L10.9472 48.4134" stroke="#00A7AC" stroke-width="0.5" stroke-miterlimit="10" stroke-linecap="round" stroke-linejoin="round"/>
<path d="M10.2602 47.6825L9.47754 48.5154" stroke="#00A7AC" stroke-width="0.5" stroke-miterlimit="10" stroke-linecap="round" stroke-linejoin="round"/>
<path d="M10.4932 50.6023H14.3071C15.0979 50.6023 15.739 49.92 15.739 49.0784V48.2318" stroke="#00A7AC" stroke-width="0.5" stroke-miterlimit="10" stroke-linecap="round" stroke-linejoin="round"/>
<path d="M15.7388 42.2522V41.1515C15.7388 40.3099 15.0977 39.6277 14.3069 39.6277H2.43189C1.64109 39.6277 1 40.3099 1 41.1515V49.0784C1 49.92 1.64109 50.6023 2.43189 50.6023H5.92555" stroke="#00A7AC" stroke-width="0.5" stroke-miterlimit="10" stroke-linecap="round" stroke-linejoin="round"/>
<path d="M1 42.2114C1 43.7364 2.16166 44.9727 3.59467 44.9727H3.62448" stroke="#00A7AC" stroke-width="0.5" stroke-miterlimit="10" stroke-linecap="round" stroke-linejoin="round"/>
<path d="M4.96289 44.9727H9.48921" stroke="#00A7AC" stroke-width="0.5" stroke-miterlimit="10" stroke-linecap="round" stroke-linejoin="round"/>
<path d="M8.18442 51.7637L10.1534 49.6682C10.2663 49.5481 10.2663 49.3534 10.1534 49.2333L9.48979 48.5271C9.37695 48.407 9.19403 48.407 9.08119 48.5271L7.1122 50.6226C6.81612 50.9377 6.81612 51.4486 7.1122 51.7637C7.40831 52.0788 7.88834 52.0788 8.18442 51.7637Z" stroke="#00A7AC" stroke-width="0.5" stroke-miterlimit="10" stroke-linecap="round" stroke-linejoin="round"/>
<path d="M8.64697 48.9892L9.7192 50.1303" stroke="#00A7AC" stroke-width="0.5" stroke-miterlimit="10" stroke-linecap="round" stroke-linejoin="round"/>
<path d="M15.8988 48.0714C14.4305 49.634 12.05 49.634 10.5817 48.0714C9.11339 46.5088 9.11339 43.9753 10.5817 42.4127C12.05 40.8501 14.4305 40.8501 15.8988 42.4127C17.3671 43.9753 17.3671 46.5088 15.8988 48.0714Z" stroke="#00A7AC" stroke-width="0.5" stroke-miterlimit="10" stroke-linecap="round" stroke-linejoin="round"/>
<path d="M15.8377 45.846C15.7331 46.3578 15.4939 46.8447 15.12 47.2427C14.0818 48.3476 12.3984 48.3476 11.3602 47.2427C10.322 46.1378 10.322 44.3463 11.3602 43.2414C12.3984 42.1364 14.0818 42.1364 15.12 43.2414C15.4936 43.6389 15.7327 44.1253 15.8374 44.6366" stroke="#00A7AC" stroke-width="0.5" stroke-miterlimit="10" stroke-linecap="round" stroke-linejoin="round"/>
<path d="M4.29365 46.869C3.9241 46.869 3.62451 46.5502 3.62451 46.1569V44.502C3.62451 44.1087 3.9241 43.7898 4.29365 43.7898C4.66319 43.7898 4.96278 44.1087 4.96278 44.502V46.1569C4.96278 46.5502 4.66319 46.869 4.29365 46.869Z" stroke="#00A7AC" stroke-width="0.5" stroke-miterlimit="10" stroke-linecap="round" stroke-linejoin="round"/>
<path d="M4.96278 45.624H3.62451" stroke="#00A7AC" stroke-width="0.5" stroke-miterlimit="10" stroke-linecap="round" stroke-linejoin="round"/>
<path d="M11.1301 39.6277V38.4758C11.1301 37.662 10.508 37 9.74338 37H6.99512C6.23047 37 5.6084 37.662 5.6084 38.4758V39.6277" stroke="#00A7AC" stroke-width="0.5" stroke-miterlimit="10" stroke-linecap="round" stroke-linejoin="round"/>
<path d="M6.60645 39.6277V38.4758C6.60645 38.2477 6.78084 38.0621 6.99518 38.0621H9.74343C9.95777 38.0621 10.1322 38.2477 10.1322 38.4758V39.6277" stroke="#00A7AC" stroke-width="0.5" stroke-miterlimit="10" stroke-linecap="round" stroke-linejoin="round"/>
<path d="M15.1098 2.56V18.54C15.1098 20.92 14.3845 22.6767 12.9338 23.81C11.5058 24.9433 9.57917 25.51 7.15384 25.51C5.77117 25.51 4.45651 25.1473 3.20984 24.422C1.96317 23.6967 1.33984 22.8353 1.33984 21.838C1.33984 21.4527 1.46451 21.0107 1.71384 20.512L3.75384 16.568L4.97784 16.942L4.67184 19.05C4.58117 19.8433 4.53584 20.5913 4.53584 21.294C4.53584 21.9967 4.77384 22.6087 5.24984 23.13C5.74851 23.6513 6.40584 23.912 7.22184 23.912C8.06051 23.912 8.72917 23.6287 9.22784 23.062C9.74917 22.4953 10.0098 21.6453 10.0098 20.512V2.56H6.77984V1.2H17.1498V2.56H15.1098ZM20.8951 13.134C20.8951 9.53 21.8698 6.56067 23.8191 4.226C25.7911 1.86867 28.5904 0.690002 32.2171 0.690002C35.8664 0.690002 38.6771 1.85733 40.6491 4.192C42.6211 6.52667 43.6071 9.50733 43.6071 13.134C43.6071 16.738 42.6211 19.7073 40.6491 22.042C38.6771 24.354 35.8664 25.51 32.2171 25.51C28.5904 25.51 25.7911 24.354 23.8191 22.042C21.8698 19.7073 20.8951 16.738 20.8951 13.134ZM32.2511 2.288C30.9138 2.288 29.7804 2.80933 28.8511 3.852C27.0604 5.80133 26.1651 8.89533 26.1651 13.134C26.1651 17.35 27.0604 20.4213 28.8511 22.348C29.8031 23.3907 30.9364 23.912 32.2511 23.912C34.2004 23.912 35.6964 22.8693 36.7391 20.784C37.8044 18.6987 38.3371 16.1487 38.3371 13.134C38.3371 10.0967 37.8044 7.53533 36.7391 5.45C35.6964 3.342 34.2004 2.288 32.2511 2.288Z" fill="#00A7AC"/>
<path d="M47.6729 2.56V1.2H55.8329C62.9275 1.2 66.4748 3.35333 66.4748 7.66C66.4748 10.652 64.7182 12.6013 61.2049 13.508V13.746C65.3982 14.3807 67.4949 16.1033 67.4949 18.914C67.4949 20.954 66.5655 22.484 64.7069 23.504C62.8482 24.5013 60.2302 25 56.8529 25H47.6729V23.64H49.7129V2.56H47.6729ZM56.5129 14.358H54.8129V23.64H56.5129C58.1449 23.64 59.5048 23.232 60.5928 22.416C61.6808 21.6 62.2248 20.4667 62.2248 19.016C62.2248 17.5427 61.6808 16.398 60.5928 15.582C59.5048 14.766 58.1449 14.358 56.5129 14.358ZM55.7989 2.56H54.8129V13.066H55.7989C57.4082 13.066 58.7342 12.59 59.7769 11.638C60.8422 10.686 61.3749 9.38267 61.3749 7.728C61.3749 6.07333 60.8422 4.804 59.7769 3.92C58.7342 3.01333 57.4082 2.56 55.7989 2.56ZM87.0111 25H71.7451V23.64H73.7851V2.56H71.7451V1.2H86.3311C86.8298 1.2 87.1924 1.22267 87.419 1.268C87.6684 1.29067 87.895 1.41533 88.099 1.642C88.303 1.846 88.405 2.17467 88.405 2.628L87.487 8.34H86.1611L85.4811 4.974C85.2771 3.954 84.8918 3.29667 84.3251 3.002C83.7811 2.70733 82.761 2.56 81.265 2.56H78.8851V14.188H86.7051V15.718H78.8851V23.64H81.945C83.4184 23.64 84.4271 23.4927 84.9711 23.198C85.5378 22.9033 85.9345 22.246 86.1611 21.226L86.8411 18.2H88.167L89.085 23.572C89.085 24.0253 88.983 24.3653 88.779 24.592C88.575 24.796 88.3484 24.9207 88.099 24.966C87.8724 24.9887 87.5098 25 87.0111 25ZM95.5072 20.614C95.5072 21.498 95.9378 22.2687 96.7992 22.926C97.6605 23.5833 98.7711 23.912 100.131 23.912C101.491 23.912 102.568 23.5833 103.361 22.926C104.155 22.2687 104.551 21.396 104.551 20.308C104.551 18.9253 103.724 17.7807 102.069 16.874L97.0372 14.188C94.1358 12.624 92.6852 10.3913 92.6852 7.49C92.6852 5.63133 93.3652 4.03333 94.7252 2.696C96.0852 1.35867 98.1137 0.690002 100.811 0.690002C102.625 0.690002 104.347 1.05267 105.979 1.778C107.611 2.50333 108.427 3.36467 108.427 4.362C108.427 4.74733 108.303 5.18933 108.053 5.688L106.421 8.816L105.231 8.442V5.586C105.231 4.566 104.778 3.76133 103.871 3.172C102.987 2.58267 101.922 2.288 100.675 2.288C99.4512 2.288 98.5105 2.65067 97.8532 3.376C97.1958 4.10133 96.8672 4.92867 96.8672 5.858C96.8672 7.71667 97.7058 9.088 99.3832 9.972L103.701 12.25C106.988 13.9727 108.631 16.2393 108.631 19.05C108.631 21.1807 107.827 22.79 106.217 23.878C104.631 24.966 102.613 25.51 100.165 25.51C98.3292 25.51 96.5611 25.1473 94.8611 24.422C93.1611 23.6967 92.3112 22.8353 92.3112 21.838C92.3112 21.4527 92.4358 21.0107 92.6852 20.512L94.3172 17.384L95.5072 17.758V20.614Z" fill="white"/>
</svg>
